<svg aria-hidden="true" style="position:absolute;width:0;height:0;overflow:hidden" xmlns="http://www.w3.org/2000/svg">
  <defs>
    <symbol id="icon-arrow" viewBox="0 0 32 32">
      <path d="m31.805 15.529-10-10a.668.668 0 0 0-.943.943l8.862 8.862H.667a.667.667 0 1 0 0 1.334h29.057l-8.862 8.862a.668.668 0 0 0 .942.943l10-10a.668.668 0 0 0 0-.943z"/>
    </symbol>
    <symbol id="icon-close" viewBox="0 0 32 32">
      <path d="m25.333 8.547-1.88-1.88L16 14.12 8.547 6.667l-1.88 1.88L14.12 16l-7.453 7.453 1.88 1.88L16 17.88l7.453 7.453 1.88-1.88L17.88 16l7.453-7.453z"/>
    </symbol>
    <symbol id="icon-heart-fill" viewBox="0 0 32 32">
      <path d="m16 30.72-2.24-2.24C5.44 21.12 0 16.16 0 10.08c0-4.96 3.84-8.8 8.8-8.8 2.72 0 5.44 1.28 7.2 3.36 1.76-2.08 4.48-3.36 7.2-3.36 4.96 0 8.8 3.84 8.8 8.8 0 6.08-5.44 11.04-13.76 18.4L16 30.72z"/>
    </symbol>
    <symbol id="icon-heart" viewBox="0 0 32 32">
      <path d="M16 30.22c-.456 0-.895-.165-1.237-.465a374.562 374.562 0 0 0-3.639-3.13l-.006-.005c-3.224-2.747-6.008-5.12-7.945-7.457-2.165-2.613-3.174-5.09-3.174-7.796 0-2.629.902-5.055 2.539-6.831C4.195 2.739 6.467 1.75 8.939 1.75c1.847 0 3.539.584 5.028 1.736A10.288 10.288 0 0 1 16 5.609c.6-.83 1.281-1.541 2.033-2.123 1.489-1.152 3.181-1.736 5.028-1.736 2.471 0 4.744.99 6.401 2.786C31.099 6.312 32 8.737 32 11.367c0 2.706-1.008 5.184-3.174 7.796-1.937 2.337-4.721 4.71-7.944 7.457-1.102.939-2.35 2.002-3.646 3.136a1.878 1.878 0 0 1-1.237.464zM8.939 3.624c-1.942 0-3.725.775-5.023 2.182-1.317 1.428-2.042 3.403-2.042 5.56 0 2.276.846 4.312 2.743 6.6 1.833 2.212 4.56 4.536 7.717 7.227l.006.005c1.104.941 2.355 2.007 3.657 3.146a430.966 430.966 0 0 1 3.669-3.151c3.157-2.691 5.884-5.014 7.717-7.226 1.897-2.289 2.742-4.324 2.742-6.6 0-2.157-.725-4.132-2.042-5.56-1.297-1.407-3.081-2.182-5.023-2.182-1.422 0-2.728.452-3.881 1.344-1.028.795-1.743 1.8-2.163 2.503-.216.362-.596.577-1.016.577s-.801-.216-1.016-.577c-.42-.703-1.135-1.708-2.163-2.503-1.153-.892-2.459-1.344-3.881-1.344z"/>
    </symbol>
    <symbol id="icon-menu" viewBox="0 0 32 32">
      <path d="M4 24h24v-2.667H4V24zm0-6.667h24v-2.667H4v2.667zM4 8v2.667h24V8H4z"/>
    </symbol>
    <symbol id="icon-sign-out" viewBox="0 0 32 32">
      <path d="m25.293 9.293-1.414 1.414L28.172 15H14v2h14.172l-4.293 4.293 1.414 1.414L32 16l-6.707-6.707z"/>
      <path d="M22 30H2V2h20v2h2V1a1 1 0 0 0-1-1H1a1 1 0 0 0-1 1v30a1 1 0 0 0 1 1h22a1 1 0 0 0 1-1v-3h-2v2z"/>
    </symbol>
     <symbol id="icon-copyright" viewBox="0 0 18 18">
      <path id="Vector" d="M7.56 8.145C7.5975 7.8975 7.68 7.68 7.785 7.4925C7.89 7.305 8.04 7.1475 8.2275 7.0275C8.4075 6.915 8.6325 6.8625 8.91 6.855C9.0825 6.8625 9.24 6.8925 9.3825 6.9525C9.5325 7.02 9.6675 7.11 9.7725 7.2225C9.8775 7.335 9.96 7.47 10.0275 7.62C10.095 7.77 10.125 7.935 10.1325 8.1H11.475C11.46 7.7475 11.3925 7.425 11.265 7.1325C11.1375 6.84 10.965 6.585 10.74 6.375C10.515 6.165 10.245 6 9.93 5.88C9.615 5.76 9.27 5.7075 8.8875 5.7075C8.4 5.7075 7.9725 5.79 7.6125 5.9625C7.2525 6.135 6.9525 6.36 6.7125 6.6525C6.4725 6.945 6.2925 7.2825 6.18 7.6725C6.0675 8.0625 6 8.4675 6 8.9025V9.105C6 9.54 6.06 9.945 6.1725 10.335C6.285 10.725 6.465 11.0625 6.705 11.3475C6.945 11.6325 7.245 11.865 7.605 12.03C7.965 12.195 8.3925 12.285 8.88 12.285C9.2325 12.285 9.5625 12.225 9.87 12.1125C10.1775 12 10.4475 11.8425 10.68 11.64C10.9125 11.4375 11.1 11.205 11.235 10.935C11.37 10.665 11.4525 10.38 11.46 10.0725H10.1175C10.11 10.23 10.0725 10.3725 10.005 10.5075C9.9375 10.6425 9.8475 10.755 9.735 10.8525C9.6225 10.95 9.495 11.025 9.345 11.0775C9.2025 11.13 9.0525 11.145 8.895 11.1525C8.625 11.145 8.4 11.0925 8.2275 10.98C8.04 10.86 7.89 10.7025 7.785 10.515C7.68 10.3275 7.5975 10.1025 7.56 9.855C7.5225 9.6075 7.5 9.3525 7.5 9.105V8.9025C7.5 8.64 7.5225 8.3925 7.56 8.145ZM9 1.5C4.86 1.5 1.5 4.86 1.5 9C1.5 13.14 4.86 16.5 9 16.5C13.14 16.5 16.5 13.14 16.5 9C16.5 4.86 13.14 1.5 9 1.5ZM9 15C5.6925 15 3 12.3075 3 9C3 5.6925 5.6925 3 9 3C12.3075 3 15 5.6925 15 9C15 12.3075 12.3075 15 9 15Z"/>
    </symbol>
    <symbol id="icon-cart" viewBox="0 0 32 32">
<path d="M12 29c0 1.657-1.343 3-3 3s-3-1.343-3-3c0-1.657 1.343-3 3-3s3 1.343 3 3z"></path>
<path d="M32 29c0 1.657-1.343 3-3 3s-3-1.343-3-3c0-1.657 1.343-3 3-3s3 1.343 3 3z"></path>
<path d="M32 16v-12h-24c0-1.105-0.895-2-2-2h-6v2h4l1.502 12.877c-0.915 0.733-1.502 1.859-1.502 3.123 0 2.209 1.791 4 4 4h24v-2h-24c-1.105 0-2-0.895-2-2 0-0.007 0-0.014 0-0.020l26-3.98z"></path>
</symbol>
<symbol id="icon-plus" viewBox="0 0 32 32">
<title>plus</title>
<path d="M31 12h-11v-11c0-0.552-0.448-1-1-1h-6c-0.552 0-1 0.448-1 1v11h-11c-0.552 0-1 0.448-1 1v6c0 0.552 0.448 1 1 1h11v11c0 0.552 0.448 1 1 1h6c0.552 0 1-0.448 1-1v-11h11c0.552 0 1-0.448 1-1v-6c0-0.552-0.448-1-1-1z"></path>
</symbol>
<symbol id="icon-minus" viewBox="0 0 32 32">
<title>minus</title>
<path d="M0 13v6c0 0.552 0.448 1 1 1h30c0.552 0 1-0.448 1-1v-6c0-0.552-0.448-1-1-1h-30c-0.552 0-1 0.448-1 1z"></path>
</symbol>
  </defs>
</svg>
